<?xml version="1.0" encoding="UTF-8" standalone="no"?>
<!-- Created with Inkscape (http://www.inkscape.org/) -->

<svg
   xmlns:dc="http://purl.org/dc/elements/1.1/"
   xmlns:cc="http://creativecommons.org/ns#"
   xmlns:rdf="http://www.w3.org/1999/02/22-rdf-syntax-ns#"
   xmlns:svg="http://www.w3.org/2000/svg"
   xmlns="http://www.w3.org/2000/svg"
   xmlns:sodipodi="http://sodipodi.sourceforge.net/DTD/sodipodi-0.dtd"
   xmlns:inkscape="http://www.inkscape.org/namespaces/inkscape"
   width="750"
   height="750"
   viewBox="0 0 750.00002 750.00002"
   id="svg13324"
   version="1.1"
   inkscape:version="0.91 r13725"
   sodipodi:docname="grid2.svg">
  <defs
     id="defs13326">
    <inkscape:path-effect
       effect="spiro"
       id="path-effect15296"
       is_visible="true" />
    <inkscape:path-effect
       effect="spiro"
       id="path-effect15302"
       is_visible="true" />
    <inkscape:path-effect
       effect="spiro"
       id="path-effect15296-3"
       is_visible="true" />
    <inkscape:path-effect
       effect="spiro"
       id="path-effect15302-6"
       is_visible="true" />
    <inkscape:path-effect
       is_visible="true"
       id="path-effect15471"
       effect="spiro" />
    <inkscape:path-effect
       effect="spiro"
       id="path-effect15296-5"
       is_visible="true" />
    <inkscape:path-effect
       effect="spiro"
       id="path-effect15302-62"
       is_visible="true" />
  </defs>
  <sodipodi:namedview
     id="base"
     pagecolor="#ffffff"
     bordercolor="#666666"
     borderopacity="1.0"
     inkscape:pageopacity="0.0"
     inkscape:pageshadow="2"
     inkscape:zoom="5.6568543"
     inkscape:cx="467.22447"
     inkscape:cy="416.15898"
     inkscape:document-units="px"
     inkscape:current-layer="layer1"
     showgrid="false"
     units="px"
     fit-margin-top="0"
     fit-margin-left="0"
     fit-margin-right="0"
     fit-margin-bottom="0"
     inkscape:window-width="1375"
     inkscape:window-height="876"
     inkscape:window-x="65"
     inkscape:window-y="24"
     inkscape:window-maximized="1" />
  <metadata
     id="metadata13329">
    <rdf:RDF>
      <cc:Work
         rdf:about="">
        <dc:format>image/svg+xml</dc:format>
        <dc:type
           rdf:resource="http://purl.org/dc/dcmitype/StillImage" />
        <dc:title></dc:title>
      </cc:Work>
    </rdf:RDF>
  </metadata>
  <g
     inkscape:label="Layer 1"
     inkscape:groupmode="layer"
     id="layer1"
     transform="translate(674.76785,-228.55844)">
    <rect
       y="516.97974"
       x="-213.6852"
       height="57.645222"
       width="57.645222"
       id="rect14543-7"
       style="opacity:1;fill:none;fill-opacity:1;stroke:none;stroke-width:18.60000038;stroke-linecap:round;stroke-miterlimit:4;stroke-dasharray:none;stroke-opacity:0.54404147" />
    <path
       style="fill:none;fill-rule:evenodd;stroke:#999999;stroke-width:0.05764521;stroke-linecap:butt;stroke-linejoin:miter;stroke-miterlimit:4;stroke-dasharray:none;stroke-opacity:1"
       d="m -199.27389,516.97973 28.82261,0"
       id="path15294-5"
       inkscape:path-effect="#path-effect15296-3"
       inkscape:original-d="m -199.27389,516.97973 28.82261,0"
       inkscape:connector-curvature="0" />
    <path
       style="fill:none;fill-rule:evenodd;stroke:#999999;stroke-width:0.02882261;stroke-linecap:butt;stroke-linejoin:miter;stroke-miterlimit:4;stroke-dasharray:none;stroke-opacity:1"
       d="m -156.03997,560.21365 0,-28.82262"
       id="path15300-3"
       inkscape:path-effect="#path-effect15302-6"
       inkscape:original-d="m -156.03997,560.21365 0,-28.82262"
       inkscape:connector-curvature="0" />
    <path
       style="fill:none;fill-rule:evenodd;stroke:#999999;stroke-width:0.2882261px;stroke-linecap:butt;stroke-linejoin:miter;stroke-opacity:1"
       d="m -199.27389,516.97973 0,14.41131 -14.41131,0"
       id="path15463"
       inkscape:connector-curvature="0" />
    <path
       style="fill:none;fill-rule:evenodd;stroke:#999999;stroke-width:0.2882261px;stroke-linecap:butt;stroke-linejoin:miter;stroke-opacity:1"
       d="m -170.45128,516.97973 0,14.41131 14.41131,0"
       id="path15465"
       inkscape:connector-curvature="0" />
    <path
       style="fill:none;fill-rule:evenodd;stroke:#999999;stroke-width:0.2882261px;stroke-linecap:butt;stroke-linejoin:miter;stroke-opacity:1"
       d="m -156.03997,560.21365 -57.64523,0"
       id="path15467"
       inkscape:connector-curvature="0" />
    <path
       inkscape:connector-curvature="0"
       inkscape:original-d="m -213.65637,531.43405 0,28.82262"
       inkscape:path-effect="#path-effect15471"
       id="path15469"
       d="m -213.65637,531.43405 0,28.82262"
       style="fill:none;fill-rule:evenodd;stroke:#999999;stroke-width:0.05764521;stroke-linecap:butt;stroke-linejoin:miter;stroke-miterlimit:4;stroke-dasharray:none;stroke-opacity:1" />
    <path
       style="opacity:1;fill:#a4a4a4;fill-opacity:1;fill-rule:nonzero;stroke:#a4a4a4;stroke-width:0.1156538;stroke-linecap:round;stroke-miterlimit:4;stroke-dasharray:none;stroke-dashoffset:0;stroke-opacity:1"
       d="m -213.62874,545.78723 0,-14.28324 7.22837,0 7.22836,0 0,-7.22837 0,-7.22836 14.28324,0 14.28325,0 0,7.22836 0,7.22837 7.28619,0 7.28619,0 0,14.28324 0,14.28324 -28.7978,0 -28.7978,0 0,-14.28324 z"
       id="path15473"
       inkscape:connector-curvature="0" />
    <rect
       y="516.97363"
       x="-271.03571"
       height="57.627918"
       width="57.627918"
       id="rect14543"
       style="opacity:1;fill:none;fill-opacity:1;stroke:none;stroke-width:18.60000038;stroke-linecap:round;stroke-miterlimit:4;stroke-dasharray:none;stroke-opacity:0.54404147" />
    <path
       style="fill:none;fill-rule:evenodd;stroke:#999999;stroke-width:0.28813958px;stroke-linecap:butt;stroke-linejoin:miter;stroke-opacity:1"
       d="m -227.81477,516.97366 c 0.10553,8.71632 4.42723,13.91917 14.40698,14.40698"
       id="path15240"
       inkscape:connector-curvature="0"
       sodipodi:nodetypes="cc" />
    <path
       style="fill:none;fill-rule:evenodd;stroke:#999999;stroke-width:0.28813958px;stroke-linecap:butt;stroke-linejoin:miter;stroke-opacity:1"
       d="m -256.62873,516.97366 c 0.51187,31.9946 17.51904,42.98199 43.22094,43.22094"
       id="path15242"
       inkscape:connector-curvature="0"
       sodipodi:nodetypes="cc" />
    <path
       style="fill:none;fill-rule:evenodd;stroke:#999999;stroke-width:0.05762791;stroke-linecap:butt;stroke-linejoin:miter;stroke-miterlimit:4;stroke-dasharray:none;stroke-opacity:1"
       d="m -256.62873,517.00112 28.81396,0"
       id="path15294"
       inkscape:path-effect="#path-effect15296-5"
       inkscape:original-d="m -256.62873,517.00112 28.81396,0"
       inkscape:connector-curvature="0" />
    <path
       style="fill:none;fill-rule:evenodd;stroke:#999999;stroke-width:0.02881395;stroke-linecap:butt;stroke-linejoin:miter;stroke-miterlimit:4;stroke-dasharray:none;stroke-opacity:1"
       d="m -213.41904,560.19573 0,-28.81397"
       id="path15300"
       inkscape:path-effect="#path-effect15302-62"
       inkscape:original-d="m -213.41904,560.19573 0,-28.81397"
       inkscape:connector-curvature="0" />
    <path
       style="opacity:1;fill:#a4a4a4;fill-opacity:1;fill-rule:nonzero;stroke:none;stroke-width:1;stroke-linecap:round;stroke-miterlimit:4;stroke-dasharray:none;stroke-dashoffset:0;stroke-opacity:1"
       d="m -217.23818,559.95955 c -13.853,-0.83382 -23.76388,-4.98727 -30.05861,-12.59696 -5.65087,-6.83133 -8.63709,-15.98786 -9.14581,-28.04347 l -0.0988,-2.34114 14.285,0 c 7.85676,0 14.28523,0.0486 14.2855,0.10805 2.9e-4,0.0594 0.0697,0.84741 0.1544,1.75107 0.57553,6.14422 3.39163,9.90375 8.74538,11.67517 1.28858,0.42637 3.57066,0.87116 4.48759,0.87466 0.28318,0.001 0.66074,0.0411 0.83903,0.0888 l 0.32416,0.0869 0,14.2461 0,14.24611 -1.54875,-0.026 c -0.85181,-0.0143 -1.87291,-0.0455 -2.2691,-0.0693 z"
       id="path16249"
       inkscape:connector-curvature="0" />
    <path
       style="opacity:1;fill:#a4a4a4;fill-opacity:1;fill-rule:nonzero;stroke:none;stroke-width:1;stroke-linecap:round;stroke-miterlimit:4;stroke-dasharray:none;stroke-dashoffset:0;stroke-opacity:1"
       d="m -227.9615,517.22698 c -0.003,-0.0408 -0.007,-0.0898 -0.008,-0.10869 l -0.003,-0.0344 -0.0163,-0.003 c -0.093,-0.0148 -0.6099,-0.029 -1.65057,-0.0454 l -0.36017,-0.006 1.02038,-6.5e-4 1.02039,-6.5e-4 0.003,0.0777 c 0.002,0.0427 0.002,0.104 0.002,0.13619 l -0.001,0.0585 -0.006,-0.0743 z"
       id="path16251"
       inkscape:connector-curvature="0" />
    <path
       d="m -674.14719,229.1791 0,748.75869 m 57.59683,-748.75869 0,748.75869 m 57.59682,-748.75869 0,748.75869 m 57.59682,-748.75869 0,748.75869 m 57.59683,-748.75869 0,748.75869 m 57.59682,-748.75869 0,748.75869 m 57.59681,-748.75869 0,748.75869 m 57.59683,-748.75869 0,748.75869 m 57.59682,-748.75869 0,748.75869 m 57.59682,-748.75869 0,748.75869 m 57.596825,-748.75869 0,748.75869 m 57.596823,-748.75869 0,748.75869 m 57.596823,-748.75869 0,748.75869 m 57.596823,-748.75869 0,748.75869 M -674.14719,229.1791 l 748.758694,0 m -748.758694,57.59683 748.758694,0 m -748.758694,57.59682 748.758694,0 m -748.758694,57.59682 748.758694,0 m -748.758694,57.59682 748.758694,0 m -748.758694,57.59683 748.758694,0 m -748.758694,57.59682 748.758694,0 m -748.758694,57.59683 748.758694,0 m -748.758694,57.59682 748.758694,0 m -748.758694,57.59682 748.758694,0 m -748.758694,57.59682 748.758694,0 m -748.758694,57.59683 748.758694,0 m -748.758694,57.59682 748.758694,0 m -748.758694,57.59681 748.758694,0"
       style="fill:none;fill-opacity:1;fill-rule:evenodd;stroke:#ffbb00;stroke-width:1.84099996;stroke-linecap:butt;stroke-linejoin:miter;stroke-opacity:1;stroke-miterlimit:4;stroke-dasharray:1.84099996, 1.84099995999999999;stroke-dashoffset:0"
       id="path11763"
       inkscape:connector-curvature="0" />
  </g>
</svg>
